<mxfile host="app.diagrams.net" modified="2024-02-11T17:32:05.420Z" agent="Mozilla/5.0 (Windows NT 10.0; Win64; x64; rv:122.0) Gecko/20100101 Firefox/122.0" etag="0Cjq-9yPYoOQmg3D91aG" version="21.8.1" type="device" pages="2">
  <diagram name="Página-1" id="42VdSgDiMsESv1ZWMkbO">
    <mxGraphModel dx="2206" dy="1160" grid="1" gridSize="10" guides="1" tooltips="1" connect="1" arrows="1" fold="1" page="1" pageScale="1" pageWidth="827" pageHeight="1169" math="0" shadow="0">
      <root>
        <mxCell id="0" />
        <mxCell id="1" parent="0" />
        <mxCell id="mnkCdfO6H3MME7IRfRD4-57" style="edgeStyle=orthogonalEdgeStyle;rounded=0;orthogonalLoop=1;jettySize=auto;html=1;entryX=0;entryY=0.5;entryDx=0;entryDy=0;strokeWidth=3;" edge="1" parent="1" source="mnkCdfO6H3MME7IRfRD4-16" target="mnkCdfO6H3MME7IRfRD4-18">
          <mxGeometry relative="1" as="geometry" />
        </mxCell>
        <mxCell id="mnkCdfO6H3MME7IRfRD4-16" value="" style="rounded=0;whiteSpace=wrap;html=1;" vertex="1" parent="1">
          <mxGeometry x="80" y="290" width="140" height="30" as="geometry" />
        </mxCell>
        <mxCell id="mnkCdfO6H3MME7IRfRD4-58" style="edgeStyle=orthogonalEdgeStyle;rounded=0;orthogonalLoop=1;jettySize=auto;html=1;strokeWidth=3;" edge="1" parent="1" source="mnkCdfO6H3MME7IRfRD4-18">
          <mxGeometry relative="1" as="geometry">
            <mxPoint x="510" y="305" as="targetPoint" />
          </mxGeometry>
        </mxCell>
        <mxCell id="mnkCdfO6H3MME7IRfRD4-18" value="&lt;font face=&quot;Computer Modern&quot; style=&quot;font-size: 30px;&quot;&gt;Analizador sintáctico (Parser)&lt;/font&gt;" style="rounded=0;whiteSpace=wrap;html=1;shadow=1;" vertex="1" parent="1">
          <mxGeometry x="271" y="250" width="170" height="110" as="geometry" />
        </mxCell>
        <mxCell id="mnkCdfO6H3MME7IRfRD4-21" style="edgeStyle=orthogonalEdgeStyle;rounded=0;orthogonalLoop=1;jettySize=auto;html=1;entryX=0.5;entryY=0;entryDx=0;entryDy=0;strokeWidth=3;" edge="1" parent="1" source="mnkCdfO6H3MME7IRfRD4-22" target="mnkCdfO6H3MME7IRfRD4-18">
          <mxGeometry relative="1" as="geometry" />
        </mxCell>
        <mxCell id="mnkCdfO6H3MME7IRfRD4-22" value="&lt;font face=&quot;Computer Modern&quot; style=&quot;font-size: 30px;&quot;&gt;Gramática libre de contexto&lt;br&gt;&lt;/font&gt;" style="rounded=0;whiteSpace=wrap;html=1;shadow=1;" vertex="1" parent="1">
          <mxGeometry x="251" y="140" width="210" height="80" as="geometry" />
        </mxCell>
        <mxCell id="mnkCdfO6H3MME7IRfRD4-23" value="&lt;div&gt;&lt;font face=&quot;Computer Modern&quot; style=&quot;font-size: 30px;&quot;&gt;Flujo de Tokens&lt;/font&gt;&lt;/div&gt;&lt;div&gt;&lt;font face=&quot;Computer Modern&quot; style=&quot;font-size: 30px;&quot;&gt;(Token Stream)&lt;br&gt;&lt;/font&gt;&lt;/div&gt;" style="text;html=1;align=center;verticalAlign=middle;resizable=0;points=[];autosize=1;strokeColor=none;fillColor=none;" vertex="1" parent="1">
          <mxGeometry x="40" y="330" width="220" height="90" as="geometry" />
        </mxCell>
        <mxCell id="mnkCdfO6H3MME7IRfRD4-24" value="" style="triangle;whiteSpace=wrap;html=1;rotation=-90;fillColor=#dae8fc;strokeColor=#6c8ebf;" vertex="1" parent="1">
          <mxGeometry x="90" y="295" width="20" height="20" as="geometry" />
        </mxCell>
        <mxCell id="mnkCdfO6H3MME7IRfRD4-25" value="" style="ellipse;whiteSpace=wrap;html=1;aspect=fixed;fillColor=#d5e8d4;strokeColor=#82b366;" vertex="1" parent="1">
          <mxGeometry x="120" y="295" width="20" height="20" as="geometry" />
        </mxCell>
        <mxCell id="mnkCdfO6H3MME7IRfRD4-26" value="" style="rhombus;whiteSpace=wrap;html=1;fillColor=#ffe6cc;strokeColor=#d79b00;" vertex="1" parent="1">
          <mxGeometry x="150" y="292.5" width="30" height="25" as="geometry" />
        </mxCell>
        <mxCell id="mnkCdfO6H3MME7IRfRD4-27" value="" style="rounded=0;whiteSpace=wrap;html=1;fillColor=#f8cecc;strokeColor=#b85450;" vertex="1" parent="1">
          <mxGeometry x="190" y="295" width="20" height="20" as="geometry" />
        </mxCell>
        <mxCell id="mnkCdfO6H3MME7IRfRD4-28" value="&lt;font style=&quot;font-size: 48px;&quot; face=&quot;Computer Modern&quot;&gt;Análisis sintáctico&lt;/font&gt;" style="text;html=1;align=center;verticalAlign=middle;resizable=0;points=[];autosize=1;strokeColor=none;fillColor=none;" vertex="1" parent="1">
          <mxGeometry x="166" y="60" width="380" height="70" as="geometry" />
        </mxCell>
        <mxCell id="mnkCdfO6H3MME7IRfRD4-29" value="" style="triangle;whiteSpace=wrap;html=1;rotation=-90;" vertex="1" parent="1">
          <mxGeometry x="655" y="150" width="20" height="20" as="geometry" />
        </mxCell>
        <mxCell id="mnkCdfO6H3MME7IRfRD4-30" value="" style="ellipse;whiteSpace=wrap;html=1;aspect=fixed;" vertex="1" parent="1">
          <mxGeometry x="570" y="230" width="20" height="20" as="geometry" />
        </mxCell>
        <mxCell id="mnkCdfO6H3MME7IRfRD4-31" value="" style="rhombus;whiteSpace=wrap;html=1;" vertex="1" parent="1">
          <mxGeometry x="740" y="225" width="30" height="25" as="geometry" />
        </mxCell>
        <mxCell id="mnkCdfO6H3MME7IRfRD4-32" value="" style="rounded=0;whiteSpace=wrap;html=1;" vertex="1" parent="1">
          <mxGeometry x="655" y="230" width="20" height="20" as="geometry" />
        </mxCell>
        <mxCell id="mnkCdfO6H3MME7IRfRD4-33" value="" style="triangle;whiteSpace=wrap;html=1;rotation=-90;fillColor=#dae8fc;strokeColor=#6c8ebf;" vertex="1" parent="1">
          <mxGeometry x="520" y="310" width="20" height="20" as="geometry" />
        </mxCell>
        <mxCell id="mnkCdfO6H3MME7IRfRD4-34" value="" style="rhombus;whiteSpace=wrap;html=1;fillColor=#ffe6cc;strokeColor=#d79b00;" vertex="1" parent="1">
          <mxGeometry x="565" y="305" width="30" height="25" as="geometry" />
        </mxCell>
        <mxCell id="mnkCdfO6H3MME7IRfRD4-35" value="" style="rounded=0;whiteSpace=wrap;html=1;fillColor=#f8cecc;strokeColor=#b85450;" vertex="1" parent="1">
          <mxGeometry x="620" y="310" width="20" height="20" as="geometry" />
        </mxCell>
        <mxCell id="mnkCdfO6H3MME7IRfRD4-36" value="" style="rhombus;whiteSpace=wrap;html=1;fillColor=#ffe6cc;strokeColor=#d79b00;" vertex="1" parent="1">
          <mxGeometry x="770" y="305" width="30" height="25" as="geometry" />
        </mxCell>
        <mxCell id="mnkCdfO6H3MME7IRfRD4-37" value="" style="rounded=0;whiteSpace=wrap;html=1;" vertex="1" parent="1">
          <mxGeometry x="710" y="310" width="20" height="20" as="geometry" />
        </mxCell>
        <mxCell id="mnkCdfO6H3MME7IRfRD4-39" value="" style="ellipse;whiteSpace=wrap;html=1;aspect=fixed;fillColor=#d5e8d4;strokeColor=#82b366;" vertex="1" parent="1">
          <mxGeometry x="675" y="390" width="20" height="20" as="geometry" />
        </mxCell>
        <mxCell id="mnkCdfO6H3MME7IRfRD4-40" value="" style="rhombus;whiteSpace=wrap;html=1;fillColor=#ffe6cc;strokeColor=#d79b00;" vertex="1" parent="1">
          <mxGeometry x="740" y="385" width="30" height="25" as="geometry" />
        </mxCell>
        <mxCell id="mnkCdfO6H3MME7IRfRD4-43" value="" style="endArrow=none;html=1;rounded=0;entryX=0;entryY=0.5;entryDx=0;entryDy=0;exitX=0.5;exitY=0;exitDx=0;exitDy=0;" edge="1" parent="1" source="mnkCdfO6H3MME7IRfRD4-30" target="mnkCdfO6H3MME7IRfRD4-29">
          <mxGeometry width="50" height="50" relative="1" as="geometry">
            <mxPoint x="620" y="285" as="sourcePoint" />
            <mxPoint x="670" y="235" as="targetPoint" />
          </mxGeometry>
        </mxCell>
        <mxCell id="mnkCdfO6H3MME7IRfRD4-44" value="" style="endArrow=none;html=1;rounded=0;entryX=0;entryY=0.5;entryDx=0;entryDy=0;exitX=0.5;exitY=0;exitDx=0;exitDy=0;" edge="1" parent="1" source="mnkCdfO6H3MME7IRfRD4-32" target="mnkCdfO6H3MME7IRfRD4-29">
          <mxGeometry width="50" height="50" relative="1" as="geometry">
            <mxPoint x="605" y="283" as="sourcePoint" />
            <mxPoint x="695" y="230" as="targetPoint" />
          </mxGeometry>
        </mxCell>
        <mxCell id="mnkCdfO6H3MME7IRfRD4-45" value="" style="endArrow=none;html=1;rounded=0;entryX=0;entryY=0.5;entryDx=0;entryDy=0;exitX=0.5;exitY=0;exitDx=0;exitDy=0;" edge="1" parent="1" source="mnkCdfO6H3MME7IRfRD4-31" target="mnkCdfO6H3MME7IRfRD4-29">
          <mxGeometry width="50" height="50" relative="1" as="geometry">
            <mxPoint x="595" y="273" as="sourcePoint" />
            <mxPoint x="685" y="220" as="targetPoint" />
          </mxGeometry>
        </mxCell>
        <mxCell id="mnkCdfO6H3MME7IRfRD4-46" value="" style="endArrow=none;html=1;rounded=0;entryX=0.5;entryY=1;entryDx=0;entryDy=0;exitX=1;exitY=0.5;exitDx=0;exitDy=0;" edge="1" parent="1" source="mnkCdfO6H3MME7IRfRD4-33" target="mnkCdfO6H3MME7IRfRD4-30">
          <mxGeometry width="50" height="50" relative="1" as="geometry">
            <mxPoint x="605" y="283" as="sourcePoint" />
            <mxPoint x="695" y="230" as="targetPoint" />
          </mxGeometry>
        </mxCell>
        <mxCell id="mnkCdfO6H3MME7IRfRD4-47" value="" style="endArrow=none;html=1;rounded=0;entryX=0.5;entryY=1;entryDx=0;entryDy=0;exitX=0.5;exitY=0;exitDx=0;exitDy=0;" edge="1" parent="1" source="mnkCdfO6H3MME7IRfRD4-34" target="mnkCdfO6H3MME7IRfRD4-30">
          <mxGeometry width="50" height="50" relative="1" as="geometry">
            <mxPoint x="570" y="320" as="sourcePoint" />
            <mxPoint x="580" y="280" as="targetPoint" />
          </mxGeometry>
        </mxCell>
        <mxCell id="mnkCdfO6H3MME7IRfRD4-48" value="" style="endArrow=none;html=1;rounded=0;exitX=0.5;exitY=0;exitDx=0;exitDy=0;entryX=0.5;entryY=1;entryDx=0;entryDy=0;" edge="1" parent="1" source="mnkCdfO6H3MME7IRfRD4-35" target="mnkCdfO6H3MME7IRfRD4-30">
          <mxGeometry width="50" height="50" relative="1" as="geometry">
            <mxPoint x="610" y="330" as="sourcePoint" />
            <mxPoint x="610" y="290" as="targetPoint" />
          </mxGeometry>
        </mxCell>
        <mxCell id="mnkCdfO6H3MME7IRfRD4-50" value="" style="endArrow=none;html=1;rounded=0;entryX=0.5;entryY=1;entryDx=0;entryDy=0;exitX=0.5;exitY=0;exitDx=0;exitDy=0;" edge="1" parent="1" source="mnkCdfO6H3MME7IRfRD4-37" target="mnkCdfO6H3MME7IRfRD4-31">
          <mxGeometry width="50" height="50" relative="1" as="geometry">
            <mxPoint x="635" y="313" as="sourcePoint" />
            <mxPoint x="725" y="260" as="targetPoint" />
          </mxGeometry>
        </mxCell>
        <mxCell id="mnkCdfO6H3MME7IRfRD4-51" value="" style="endArrow=none;html=1;rounded=0;entryX=0.5;entryY=1;entryDx=0;entryDy=0;exitX=0.5;exitY=0;exitDx=0;exitDy=0;" edge="1" parent="1" source="mnkCdfO6H3MME7IRfRD4-36" target="mnkCdfO6H3MME7IRfRD4-31">
          <mxGeometry width="50" height="50" relative="1" as="geometry">
            <mxPoint x="645" y="323" as="sourcePoint" />
            <mxPoint x="735" y="270" as="targetPoint" />
          </mxGeometry>
        </mxCell>
        <mxCell id="mnkCdfO6H3MME7IRfRD4-52" value="" style="endArrow=none;html=1;rounded=0;entryX=0.5;entryY=1;entryDx=0;entryDy=0;exitX=0.5;exitY=0;exitDx=0;exitDy=0;" edge="1" parent="1" source="mnkCdfO6H3MME7IRfRD4-39" target="mnkCdfO6H3MME7IRfRD4-37">
          <mxGeometry width="50" height="50" relative="1" as="geometry">
            <mxPoint x="655" y="333" as="sourcePoint" />
            <mxPoint x="745" y="280" as="targetPoint" />
          </mxGeometry>
        </mxCell>
        <mxCell id="mnkCdfO6H3MME7IRfRD4-53" value="" style="endArrow=none;html=1;rounded=0;entryX=0.5;entryY=1;entryDx=0;entryDy=0;exitX=0.5;exitY=0;exitDx=0;exitDy=0;" edge="1" parent="1" source="mnkCdfO6H3MME7IRfRD4-40" target="mnkCdfO6H3MME7IRfRD4-37">
          <mxGeometry width="50" height="50" relative="1" as="geometry">
            <mxPoint x="665" y="343" as="sourcePoint" />
            <mxPoint x="755" y="290" as="targetPoint" />
          </mxGeometry>
        </mxCell>
        <mxCell id="mnkCdfO6H3MME7IRfRD4-56" value="&lt;div&gt;&lt;font face=&quot;Console Modern&quot; style=&quot;font-size: 30px;&quot;&gt;Árbol de sintaxis concreta&lt;/font&gt;&lt;/div&gt;&lt;div&gt;&lt;font style=&quot;font-size: 30px;&quot; face=&quot;Console Modern&quot;&gt;(Parse Tree)&lt;/font&gt;&lt;font size=&quot;3&quot;&gt;&lt;br&gt;&lt;/font&gt;&lt;/div&gt;" style="text;html=1;align=center;verticalAlign=middle;resizable=0;points=[];autosize=1;strokeColor=none;fillColor=none;" vertex="1" parent="1">
          <mxGeometry x="460" y="420" width="340" height="90" as="geometry" />
        </mxCell>
      </root>
    </mxGraphModel>
  </diagram>
  <diagram id="_9WHPYHZ24YKo_dHJw_6" name="Página-2">
    <mxGraphModel dx="1434" dy="754" grid="1" gridSize="10" guides="1" tooltips="1" connect="1" arrows="1" fold="1" page="1" pageScale="1" pageWidth="827" pageHeight="1169" math="0" shadow="0">
      <root>
        <mxCell id="0" />
        <mxCell id="1" parent="0" />
        <mxCell id="FTLPVFWfgPdDJUzXN6jz-1" value="" style="rounded=0;whiteSpace=wrap;html=1;" vertex="1" parent="1">
          <mxGeometry x="530" y="320" width="140" height="30" as="geometry" />
        </mxCell>
        <mxCell id="FTLPVFWfgPdDJUzXN6jz-2" style="edgeStyle=orthogonalEdgeStyle;rounded=0;orthogonalLoop=1;jettySize=auto;html=1;entryX=0;entryY=0.5;entryDx=0;entryDy=0;strokeWidth=3;" edge="1" parent="1" source="FTLPVFWfgPdDJUzXN6jz-3" target="FTLPVFWfgPdDJUzXN6jz-1">
          <mxGeometry relative="1" as="geometry" />
        </mxCell>
        <mxCell id="FTLPVFWfgPdDJUzXN6jz-3" value="&lt;font face=&quot;Computer Modern&quot; style=&quot;font-size: 30px;&quot;&gt;Analizador léxico (Lexer)&lt;/font&gt;" style="rounded=0;whiteSpace=wrap;html=1;shadow=1;" vertex="1" parent="1">
          <mxGeometry x="280" y="280" width="170" height="110" as="geometry" />
        </mxCell>
        <mxCell id="FTLPVFWfgPdDJUzXN6jz-4" style="edgeStyle=orthogonalEdgeStyle;rounded=0;orthogonalLoop=1;jettySize=auto;html=1;exitX=1;exitY=0.5;exitDx=0;exitDy=0;strokeWidth=3;" edge="1" parent="1" source="FTLPVFWfgPdDJUzXN6jz-5" target="FTLPVFWfgPdDJUzXN6jz-3">
          <mxGeometry relative="1" as="geometry" />
        </mxCell>
        <mxCell id="FTLPVFWfgPdDJUzXN6jz-5" value="&lt;font face=&quot;Computer Modern&quot; style=&quot;font-size: 30px;&quot;&gt;Código Fuente&lt;/font&gt;" style="rounded=0;whiteSpace=wrap;html=1;shadow=1;" vertex="1" parent="1">
          <mxGeometry x="100" y="290" width="110" height="90" as="geometry" />
        </mxCell>
        <mxCell id="FTLPVFWfgPdDJUzXN6jz-6" style="edgeStyle=orthogonalEdgeStyle;rounded=0;orthogonalLoop=1;jettySize=auto;html=1;entryX=0.5;entryY=0;entryDx=0;entryDy=0;strokeWidth=3;" edge="1" parent="1" source="FTLPVFWfgPdDJUzXN6jz-7" target="FTLPVFWfgPdDJUzXN6jz-3">
          <mxGeometry relative="1" as="geometry" />
        </mxCell>
        <mxCell id="FTLPVFWfgPdDJUzXN6jz-7" value="&lt;font face=&quot;Computer Modern&quot; style=&quot;font-size: 30px;&quot;&gt;Gramática Regular&lt;/font&gt;" style="rounded=0;whiteSpace=wrap;html=1;shadow=1;" vertex="1" parent="1">
          <mxGeometry x="260" y="170" width="210" height="80" as="geometry" />
        </mxCell>
        <mxCell id="FTLPVFWfgPdDJUzXN6jz-8" value="&lt;div&gt;&lt;font face=&quot;Computer Modern&quot; style=&quot;font-size: 30px;&quot;&gt;Flujo de Tokens&lt;/font&gt;&lt;/div&gt;&lt;div&gt;&lt;font face=&quot;Computer Modern&quot; style=&quot;font-size: 30px;&quot;&gt;(Token Stream)&lt;br&gt;&lt;/font&gt;&lt;/div&gt;" style="text;html=1;align=center;verticalAlign=middle;resizable=0;points=[];autosize=1;strokeColor=none;fillColor=none;" vertex="1" parent="1">
          <mxGeometry x="485" y="360" width="220" height="90" as="geometry" />
        </mxCell>
        <mxCell id="FTLPVFWfgPdDJUzXN6jz-9" value="" style="triangle;whiteSpace=wrap;html=1;rotation=-90;fillColor=#dae8fc;strokeColor=#6c8ebf;" vertex="1" parent="1">
          <mxGeometry x="540" y="325" width="20" height="20" as="geometry" />
        </mxCell>
        <mxCell id="FTLPVFWfgPdDJUzXN6jz-10" value="" style="ellipse;whiteSpace=wrap;html=1;aspect=fixed;fillColor=#d5e8d4;strokeColor=#82b366;" vertex="1" parent="1">
          <mxGeometry x="570" y="325" width="20" height="20" as="geometry" />
        </mxCell>
        <mxCell id="FTLPVFWfgPdDJUzXN6jz-11" value="" style="rhombus;whiteSpace=wrap;html=1;fillColor=#ffe6cc;strokeColor=#d79b00;" vertex="1" parent="1">
          <mxGeometry x="600" y="322.5" width="30" height="25" as="geometry" />
        </mxCell>
        <mxCell id="FTLPVFWfgPdDJUzXN6jz-12" value="" style="rounded=0;whiteSpace=wrap;html=1;fillColor=#f8cecc;strokeColor=#b85450;" vertex="1" parent="1">
          <mxGeometry x="640" y="325" width="20" height="20" as="geometry" />
        </mxCell>
        <mxCell id="FTLPVFWfgPdDJUzXN6jz-13" value="&lt;font style=&quot;font-size: 48px;&quot; face=&quot;Computer Modern&quot;&gt;Análisis léxico&lt;/font&gt;" style="text;html=1;align=center;verticalAlign=middle;resizable=0;points=[];autosize=1;strokeColor=none;fillColor=none;" vertex="1" parent="1">
          <mxGeometry x="210" y="90" width="310" height="70" as="geometry" />
        </mxCell>
      </root>
    </mxGraphModel>
  </diagram>
</mxfile>
